<?xml version="1.0" standalone="no"?>
<!DOCTYPE svg PUBLIC "-//W3C//DTD SVG 20010904//EN"
 "http://www.w3.org/TR/2001/REC-SVG-20010904/DTD/svg10.dtd">
<svg version="1.0" xmlns="http://www.w3.org/2000/svg"
 width="740.000000pt" height="740.000000pt" viewBox="0 0 740.000000 740.000000"
 preserveAspectRatio="xMidYMid meet">

<g transform="translate(0.000000,740.000000) scale(0.100000,-0.100000)"
fill="#000000" stroke="none">
<path d="M5305 7060 c-89 -16 -185 -52 -250 -94 -53 -34 -370 -299 -1360
-1132 -147 -124 -908 -764 -1828 -1537 -340 -286 -624 -532 -632 -548 -19 -35
-19 -63 -1 -98 8 -15 295 -263 638 -552 343 -288 763 -641 933 -784 1621
-1364 2198 -1847 2246 -1879 140 -93 343 -126 519 -84 83 19 222 93 288 153
112 102 269 359 303 495 22 89 17 251 -10 340 -62 200 -82 221 -622 675 -255
215 -704 593 -998 840 -294 248 -638 537 -765 644 -127 106 -231 197 -231 201
0 7 228 200 1465 1239 1000 840 996 836 1045 906 92 128 130 245 130 400 0
169 -37 268 -174 472 -117 176 -230 266 -392 318 -87 27 -227 39 -304 25z
m240 -247 c61 -19 139 -69 182 -114 42 -45 150 -211 179 -274 13 -27 28 -81
34 -120 15 -89 -5 -190 -53 -279 -40 -73 -40 -73 -657 -591 -449 -377 -1026
-862 -1660 -1396 -168 -141 -312 -264 -320 -274 -20 -24 -20 -106 0 -130 8
-10 296 -255 640 -544 1158 -974 1553 -1305 1749 -1471 204 -172 243 -216 282
-318 30 -79 31 -214 0 -293 -25 -65 -123 -223 -183 -293 -81 -95 -200 -150
-328 -149 -92 0 -172 22 -236 66 -40 26 -1333 1111 -3177 2664 -161 135 -333
280 -384 322 -50 42 -92 78 -92 81 0 3 185 160 412 350 397 333 894 751 2477
2083 526 443 763 636 805 657 102 51 218 59 330 23z"/>
</g>
</svg>
