<?xml version="1.0" standalone="no"?>
<!DOCTYPE svg PUBLIC "-//W3C//DTD SVG 20010904//EN"
 "http://www.w3.org/TR/2001/REC-SVG-20010904/DTD/svg10.dtd">
<svg version="1.0" xmlns="http://www.w3.org/2000/svg"
 width="740.000000pt" height="740.000000pt" viewBox="0 0 740.000000 740.000000"
 preserveAspectRatio="xMidYMid meet">

<g transform="translate(0.000000,740.000000) scale(0.100000,-0.100000)"
fill="#000000" stroke="none">
<path d="M1915 7064 c-11 -2 -45 -9 -75 -15 -86 -17 -226 -89 -298 -154 -112
-102 -269 -359 -303 -495 -22 -89 -17 -251 10 -340 63 -203 68 -209 746 -779
325 -274 878 -739 1230 -1036 352 -296 640 -541 640 -545 0 -4 -376 -323 -835
-709 -1682 -1415 -1626 -1367 -1673 -1434 -96 -135 -131 -243 -131 -402 0
-170 28 -249 162 -455 101 -155 186 -237 306 -294 50 -24 111 -49 136 -54 179
-42 376 -10 520 85 45 30 454 370 955 793 50 42 358 301 685 576 769 646 1323
1112 1790 1506 207 174 381 328 388 342 16 35 15 61 -3 95 -8 16 -292 262
-632 548 -1550 1302 -2700 2270 -2933 2467 -190 161 -278 224 -361 257 -93 37
-250 57 -324 43z m211 -250 c29 -7 74 -29 101 -47 27 -18 233 -188 458 -378
226 -190 667 -561 980 -824 314 -264 715 -601 891 -750 177 -148 547 -459 822
-690 276 -231 501 -422 501 -425 0 -3 -30 -30 -67 -60 -37 -30 -238 -199 -447
-375 -1225 -1030 -1545 -1299 -1675 -1409 -80 -67 -388 -327 -685 -576 -297
-250 -589 -496 -650 -547 -60 -52 -137 -107 -170 -123 -173 -85 -383 -46 -516
96 -50 54 -164 235 -190 303 -31 79 -30 214 0 293 49 128 -11 72 977 903 274
231 697 586 939 790 242 203 506 425 585 492 80 67 154 131 165 143 25 27 27
108 5 135 -14 18 -167 146 -1390 1174 -311 262 -624 525 -696 586 -72 60 -210
177 -308 259 -191 161 -223 195 -262 280 -52 114 -52 247 0 361 37 81 151 248
201 294 53 49 153 99 222 111 58 10 139 4 209 -16z"/>
</g>
</svg>
