<?xml version="1.0" standalone="no"?>
<!DOCTYPE svg PUBLIC "-//W3C//DTD SVG 20010904//EN"
 "http://www.w3.org/TR/2001/REC-SVG-20010904/DTD/svg10.dtd">
<svg version="1.0" xmlns="http://www.w3.org/2000/svg"
 width="740.000000pt" height="740.000000pt" viewBox="0 0 740.000000 740.000000"
 preserveAspectRatio="xMidYMid meet">

<g transform="translate(0.000000,740.000000) scale(0.100000,-0.100000)"
fill="#000000" stroke="none">
<path d="M4433 6860 c-17 -10 -36 -27 -41 -37 -6 -10 -42 -171 -82 -358 -104
-488 -104 -491 -121 -487 -8 2 -48 12 -89 22 -135 34 -223 44 -375 44 -333 -1
-638 -103 -903 -302 -145 -108 -297 -279 -382 -426 -27 -48 -36 -56 -61 -56
-39 0 -1169 -494 -1191 -521 -35 -41 -23 -80 122 -414 122 -278 145 -324 171
-339 19 -11 41 -16 58 -13 14 3 135 53 268 111 258 113 255 113 387 93 l78
-12 29 -89 c71 -216 199 -425 362 -589 126 -126 245 -211 402 -288 135 -66
233 -100 379 -131 138 -29 405 -32 551 -4 643 120 1125 618 1222 1261 l16 112
100 7 c55 4 103 3 108 -1 9 -10 -6 -227 -21 -316 -59 -333 -189 -598 -407
-827 -269 -283 -634 -465 -1026 -510 -158 -19 -409 -8 -564 24 -561 118 -1036
458 -1361 976 -53 84 -63 95 -88 95 -45 0 -41 -30 16 -125 134 -221 367 -482
561 -627 201 -151 409 -260 629 -331 183 -59 317 -83 515 -90 l170 -7 3 -61 3
-60 -154 -17 c-280 -31 -452 -91 -556 -194 -157 -157 -104 -315 147 -439 157
-77 363 -116 612 -117 246 0 430 37 597 119 203 100 270 245 174 375 -102 139
-284 216 -601 254 -63 8 -123 15 -132 15 -15 0 -18 10 -18 65 0 36 3 65 8 65
4 0 52 7 107 15 653 98 1184 534 1374 1127 27 85 49 183 79 348 l8 45 74 3
c42 2 78 8 81 14 18 29 31 190 26 303 -9 183 -29 270 -60 260 -7 -2 -42 -6
-78 -9 l-67 -6 -8 47 c-8 40 -13 49 -33 51 -43 6 -45 -7 -25 -167 10 -83 15
-153 12 -156 -7 -8 -197 -22 -204 -16 -2 2 -4 30 -4 62 0 31 -9 110 -20 174
-35 205 -107 387 -224 565 -36 55 -62 101 -58 103 4 3 64 23 134 46 l127 42
355 -75 c195 -42 370 -76 389 -76 36 0 79 27 97 60 16 30 200 902 200 948 0
51 -37 98 -88 111 -80 22 -1634 351 -1655 351 -12 0 -36 -9 -54 -20z m893
-204 c449 -96 822 -180 831 -187 8 -7 19 -23 23 -34 12 -31 -181 -929 -205
-955 -11 -12 -31 -20 -48 -20 -17 0 -191 34 -387 76 l-356 77 -342 -116 c-281
-95 -342 -112 -342 -99 0 9 10 90 22 180 19 136 20 165 9 172 -8 4 -66 18
-129 31 -130 25 -166 46 -164 95 1 16 44 229 96 474 101 469 104 480 158 480
10 0 386 -78 834 -174z m-1336 -681 c41 -8 103 -22 138 -31 l62 -17 0 -46 c0
-26 7 -56 16 -69 15 -22 14 -27 -5 -72 -47 -109 -19 -197 89 -285 108 -87 145
-169 119 -263 -10 -38 -29 -62 -100 -132 -97 -94 -128 -148 -129 -223 0 -149
141 -223 322 -167 74 23 246 122 341 198 66 53 174 163 203 207 9 14 20 25 25
25 13 0 76 -208 94 -315 23 -132 23 -348 0 -480 -33 -193 -106 -382 -210 -542
-32 -49 -58 -89 -59 -90 -1 -1 -22 8 -47 20 -35 18 -61 22 -129 22 -109 -1
-144 -18 -265 -135 -65 -63 -102 -91 -131 -99 -61 -17 -144 -13 -193 9 -83 38
-154 17 -198 -58 -37 -63 -37 -150 2 -245 15 -38 24 -71 21 -75 -21 -21 -292
-29 -411 -12 -100 14 -227 47 -317 82 -75 28 -78 31 -78 62 0 18 -13 57 -29
87 -15 30 -40 76 -55 103 -37 71 -35 111 14 182 50 74 54 128 14 190 -24 37
-42 52 -162 135 -66 46 -84 81 -80 159 7 130 85 238 217 297 174 78 194 89
232 130 46 50 59 79 59 131 0 111 -122 143 -354 93 -122 -26 -162 -26 -204 -1
-73 45 -78 124 -18 309 20 61 36 125 36 143 0 111 -81 211 -182 224 -26 4 -48
11 -48 17 0 23 248 254 330 308 196 129 413 210 641 239 98 12 335 4 429 -15z
m-1438 -1085 c76 -173 138 -324 138 -336 0 -28 -10 -35 -100 -74 -41 -18 -81
-38 -88 -44 -11 -11 -6 -34 28 -131 22 -65 39 -119 37 -121 -2 -2 -120 11
-262 28 l-260 31 -254 -112 c-168 -74 -262 -110 -276 -107 -30 8 -311 647
-296 674 14 26 1151 521 1176 512 14 -5 58 -95 157 -320z m2162 40 c-80 -148
-281 -249 -383 -192 -56 30 -89 118 -62 161 7 11 16 6 41 -23 36 -40 64 -46
80 -17 10 19 11 19 35 -5 13 -13 35 -24 49 -24 34 0 154 64 207 110 24 22 48
39 52 40 5 0 -4 -23 -19 -50z m922 -177 c-10 -10 -19 5 -10 18 6 11 8 11 12 0
2 -7 1 -15 -2 -18z m-41 -52 c3 -5 1 -12 -5 -16 -5 -3 -10 1 -10 9 0 18 6 21
15 7z m65 -16 c0 -8 -4 -15 -10 -15 -5 0 -10 7 -10 15 0 8 5 15 10 15 6 0 10
-7 10 -15z m-2580 -50 c15 -18 6 -45 -13 -45 -8 0 -20 7 -27 15 -10 12 -10 18
0 30 16 19 24 19 40 0z m51 -98 c-13 -13 -26 -3 -16 12 3 6 11 8 17 5 6 -4 6
-10 -1 -17z m-113 -28 c-2 -6 -8 -10 -13 -10 -5 0 -11 4 -13 10 -2 6 4 11 13
11 9 0 15 -5 13 -11z m-365 -799 c44 -30 48 -45 10 -35 -25 6 -22 1 27 -50 30
-31 67 -64 83 -73 33 -20 36 -36 5 -27 -30 9 52 -76 140 -147 35 -28 61 -53
58 -55 -9 -9 -126 63 -193 118 -75 62 -171 169 -221 248 -30 46 -82 159 -82
176 0 3 31 -25 68 -62 37 -37 85 -79 105 -93z m1566 -319 c9 -6 -1 -14 -38
-26 -29 -9 -61 -29 -75 -46 -31 -36 -40 -37 -31 -1 15 62 96 103 144 73z
m-349 -961 c0 -64 -4 -92 -12 -94 -7 -2 -32 -9 -55 -15 -55 -15 -78 -37 -61
-59 24 -29 76 -42 165 -42 95 0 155 20 161 53 4 19 -65 56 -105 57 -22 0 -23
3 -23 95 l0 95 63 0 c79 0 240 -24 337 -51 165 -45 290 -130 290 -199 0 -61
-86 -129 -221 -176 -193 -66 -530 -88 -774 -50 -222 35 -408 117 -448 198 -16
33 -16 40 -4 71 45 106 327 204 595 206 l92 1 0 -90z"/>
<path d="M5182 6498 c-245 -337 -393 -551 -388 -563 12 -33 39 -9 123 110 48
68 95 124 103 124 21 1 263 -68 271 -77 4 -4 21 -72 39 -152 39 -181 38 -180
56 -180 26 0 26 28 1 147 -39 176 -106 490 -119 553 -13 62 -24 90 -38 90 -5
0 -27 -24 -48 -52z m43 -70 c36 -160 56 -260 53 -267 -4 -12 -229 52 -226 64
5 17 152 224 160 225 4 0 10 -10 13 -22z"/>
<path d="M4431 6389 c0 -4 -20 -94 -42 -200 -51 -234 -55 -271 -37 -286 12
-10 223 -63 252 -63 5 0 -15 26 -46 58 -58 59 -118 138 -118 154 0 5 16 0 35
-12 19 -12 35 -19 35 -16 0 4 -16 38 -35 76 -39 78 -44 96 -15 61 24 -28 24
-28 4 40 -9 30 -20 86 -24 124 -4 39 -8 67 -9 64z"/>
<path d="M3862 5888 c-28 -28 6 -78 44 -64 21 8 17 54 -5 66 -24 13 -24 13
-39 -2z"/>
<path d="M3639 5769 c-14 -14 -19 -28 -15 -42 3 -12 6 -25 6 -29 0 -4 13 -14
29 -23 35 -18 77 -7 83 22 7 30 -12 70 -38 82 -34 15 -41 14 -65 -10z"/>
<path d="M3834 5625 c-8 -33 12 -57 45 -53 50 6 36 78 -15 78 -17 0 -25 -7
-30 -25z"/>
<path d="M1770 4863 c0 -10 11 -36 25 -58 13 -22 25 -45 25 -50 0 -6 -52 -33
-115 -60 -84 -36 -115 -54 -115 -66 0 -10 4 -20 9 -24 5 -3 88 29 183 71 95
41 178 78 185 81 20 8 26 -78 11 -153 -15 -81 -20 -82 -112 -28 -59 35 -86 38
-86 9 0 -17 59 -57 120 -81 22 -9 40 -18 40 -20 0 -14 -44 -87 -85 -142 -45
-62 -52 -92 -20 -92 18 0 96 103 132 173 20 41 28 48 46 43 43 -12 173 -18
212 -9 30 7 40 14 40 28 0 19 -6 20 -90 17 -113 -3 -161 7 -158 34 2 10 7 49
13 86 6 39 6 85 1 111 l-8 46 58 26 c43 19 59 32 59 46 0 28 -19 24 -138 -27
-59 -25 -112 -48 -118 -51 -6 -2 -26 21 -43 51 -21 39 -37 56 -51 56 -12 0
-20 -7 -20 -17z"/>
<path d="M1405 4395 c81 -215 119 -311 124 -318 7 -7 188 58 206 74 5 5 -6 9
-28 9 -55 0 -140 36 -189 80 -43 40 -43 40 -13 34 l30 -6 -33 27 c-18 15 -49
48 -69 73 -20 26 -33 38 -28 27z"/>
<path d="M3240 2350 c-54 -54 15 -154 137 -200 69 -26 198 -57 268 -64 46 -5
44 -4 -20 12 -38 10 -92 27 -119 37 l-50 19 28 12 c27 11 26 12 -40 28 -95 24
-163 54 -145 65 11 7 7 13 -17 25 -42 22 -45 30 -21 60 24 30 8 35 -21 6z"/>
<path d="M4253 2353 c-25 -10 -12 -23 22 -23 36 0 47 13 19 24 -18 7 -23 7
-41 -1z"/>
<path d="M4390 2270 c0 -5 7 -10 15 -10 8 0 15 5 15 10 0 6 -7 10 -15 10 -8 0
-15 -4 -15 -10z"/>
<path d="M2796 6777 c-36 -76 -72 -205 -102 -371 -15 -77 -28 -143 -30 -144
-6 -8 -79 83 -143 179 -80 120 -137 189 -156 189 -21 0 -30 -120 -17 -240 11
-91 32 -196 58 -279 6 -20 4 -22 -12 -18 -66 19 -415 39 -429 25 -18 -18 180
-239 299 -334 l49 -39 -35 55 c-45 69 -121 221 -115 227 9 8 223 -26 325 -52
55 -14 105 -25 110 -25 6 0 -14 61 -44 137 -30 75 -52 138 -50 141 11 11 87
-63 145 -142 35 -48 66 -85 67 -83 2 2 17 70 34 152 29 140 79 313 99 344 17
26 54 -163 54 -277 0 -91 2 -101 14 -80 55 98 73 280 39 408 -18 71 -70 188
-109 245 l-25 36 -26 -54z"/>
<path d="M1797 1094 c-4 -4 -7 -106 -7 -226 l0 -218 30 0 30 0 -2 223 c-3 215
-4 222 -23 225 -12 2 -24 0 -28 -4z"/>
<path d="M2290 875 c0 -218 1 -225 20 -225 15 0 20 7 20 26 l0 26 31 -26 c40
-34 103 -38 147 -10 64 41 85 167 39 235 -42 63 -109 76 -171 34 l-36 -24 0
94 c0 95 0 95 -25 95 l-25 0 0 -225z m196 22 c23 -20 28 -34 32 -83 4 -54 1
-63 -22 -91 -63 -75 -156 -29 -156 77 0 101 80 154 146 97z"/>
<path d="M2957 1093 c-4 -3 -7 -105 -7 -225 l0 -218 25 0 25 0 0 225 c0 212
-1 225 -18 225 -10 0 -22 -3 -25 -7z"/>
<path d="M1525 1069 c-100 -25 -159 -105 -158 -214 1 -133 77 -205 216 -205
35 0 78 5 96 11 l31 11 0 99 0 99 -70 0 c-63 0 -70 -2 -70 -20 0 -17 7 -20 45
-20 l45 0 0 -64 c0 -72 -4 -76 -77 -76 -96 0 -163 72 -163 176 1 121 102 189
237 160 25 -6 31 -4 36 13 3 12 -1 22 -10 25 -30 12 -119 15 -158 5z"/>
<path d="M3240 860 l0 -210 115 0 c108 0 115 1 115 20 0 19 -7 20 -90 20 l-90
0 0 190 0 190 -25 0 -25 0 0 -210z"/>
<path d="M2000 942 c-41 -20 -80 -89 -80 -141 0 -48 34 -113 70 -135 68 -39
164 -15 204 53 25 44 25 128 0 173 -23 39 -75 68 -124 68 -19 0 -51 -8 -70
-18z m126 -45 c23 -20 28 -34 32 -83 4 -54 1 -63 -22 -91 -33 -40 -59 -48 -96
-33 -73 30 -88 143 -28 207 29 31 78 31 114 0z"/>
<path d="M2677 949 c-29 -11 -35 -48 -6 -40 8 3 33 6 56 9 46 4 83 -21 83 -58
0 -16 -7 -20 -33 -20 -88 0 -147 -41 -147 -102 0 -53 14 -75 55 -87 38 -10 69
-5 100 16 25 17 35 17 35 -2 0 -9 9 -15 21 -15 20 0 21 4 17 125 -3 120 -4
126 -30 151 -30 30 -103 41 -151 23z m133 -178 c0 -47 -24 -79 -66 -87 -38 -7
-64 15 -64 55 0 41 42 68 108 70 19 1 22 -4 22 -38z"/>
<path d="M3558 948 c-29 -10 -32 -16 -20 -35 5 -8 13 -9 22 -3 8 6 33 10 56
10 46 0 74 -22 74 -58 0 -19 -6 -22 -37 -22 -47 0 -118 -32 -132 -58 -18 -34
-13 -79 12 -108 30 -35 94 -37 138 -5 29 21 29 21 29 1 0 -14 7 -20 23 -20 22
0 22 2 19 112 -2 62 -8 126 -14 141 -20 50 -99 71 -170 45z m132 -182 c0 -36
-5 -48 -26 -65 -32 -25 -61 -27 -86 -4 -48 43 3 108 90 112 20 1 22 -4 22 -43z"/>
<path d="M3928 944 c-16 -8 -28 -19 -28 -24 0 -6 -4 -10 -10 -10 -5 0 -10 9
-10 20 0 14 -7 20 -22 20 -23 0 -23 0 -20 -150 l3 -150 25 0 24 0 0 109 0 109
31 26 c38 32 63 33 94 1 24 -23 25 -31 25 -135 l0 -110 25 0 25 0 0 116 c0 90
-4 122 -17 144 -29 49 -91 64 -145 34z"/>
<path d="M4244 946 c-70 -31 -101 -153 -57 -228 38 -67 128 -85 179 -37 l24
22 0 -42 c0 -80 -73 -122 -156 -91 -21 8 -29 8 -36 -2 -13 -21 -10 -25 23 -37
81 -28 171 -2 201 59 15 29 18 63 18 198 0 155 -1 162 -20 162 -14 0 -20 -7
-20 -21 0 -20 -1 -20 -31 5 -34 29 -76 33 -125 12z m121 -51 c21 -21 25 -33
25 -87 -1 -65 -10 -87 -47 -106 -35 -19 -63 -14 -94 17 -25 26 -29 37 -29 86
0 49 4 60 29 86 38 37 82 39 116 4z"/>
<path d="M4918 948 c-18 -6 -28 -17 -28 -30 0 -15 4 -18 18 -13 62 27 116 17
131 -25 12 -35 12 -35 -61 -45 -84 -11 -133 -74 -108 -139 20 -55 111 -66 161
-20 18 16 19 16 19 -4 0 -17 6 -22 25 -22 l25 0 0 108 c0 119 -15 167 -60 189
-29 15 -84 15 -122 1z m130 -176 c3 -25 -3 -39 -27 -62 -16 -17 -39 -30 -50
-30 -23 0 -61 33 -61 53 0 24 31 57 63 66 54 16 72 10 75 -27z"/>
<path d="M5255 950 c-98 -40 -115 -218 -27 -276 39 -25 104 -24 141 4 28 20
31 21 31 5 0 -10 -5 -35 -11 -55 -16 -60 -75 -80 -169 -57 -10 3 -15 -3 -15
-16 0 -16 10 -22 46 -29 98 -19 174 23 190 104 4 25 8 107 9 183 l0 137 -25 0
c-19 0 -25 -5 -26 -22 0 -13 -3 -17 -6 -10 -13 33 -92 51 -138 32z m111 -53
c51 -45 41 -166 -17 -198 -12 -6 -36 -8 -56 -4 -62 11 -91 93 -59 169 25 59
84 74 132 33z"/>
<path d="M5592 940 c-63 -39 -90 -144 -55 -217 26 -56 65 -75 150 -71 77 4 87
7 78 30 -5 13 -14 14 -47 6 -70 -15 -148 29 -148 83 0 16 11 19 108 21 l107 3
-3 39 c-2 22 -10 52 -18 68 -29 56 -112 75 -172 38z m118 -40 c11 -11 20 -24
20 -29 0 -5 3 -16 6 -25 5 -14 -6 -16 -81 -16 -85 0 -86 0 -80 23 20 63 93 89
135 47z"/>
<path d="M5895 948 c-30 -16 -45 -39 -45 -69 0 -46 10 -59 71 -90 52 -26 59
-33 59 -59 0 -39 -38 -57 -89 -41 -37 11 -51 7 -51 -14 0 -18 23 -25 86 -25
66 0 104 29 104 80 0 48 -16 69 -74 94 -60 27 -71 44 -49 76 13 18 23 21 61
18 37 -2 47 0 50 13 5 27 -82 40 -123 17z"/>
<path d="M4542 825 c3 -120 4 -126 30 -151 34 -34 96 -37 138 -5 36 26 40 26
40 1 0 -13 7 -20 20 -20 19 0 20 7 20 150 l0 150 -25 0 -25 0 0 -105 c0 -99
-2 -107 -25 -130 -30 -31 -77 -33 -105 -5 -18 18 -20 33 -20 130 l0 110 -26 0
-26 0 4 -125z"/>
</g>
</svg>
